<svg width="72" height="72" viewBox="0 0 72 72" fill="none" xmlns="http://www.w3.org/2000/svg">
<circle cx="35.9998" cy="35.9998" r="20.7" fill="white"/>
<path fill-rule="evenodd" clip-rule="evenodd" d="M3 36C3 54.216 17.784 69 36 69C54.216 69 69 54.216 69 36C69 17.784 54.216 3 36 3C17.784 3 3 17.784 3 36ZM49.8082 47.0027C50.285 47.0027 50.67 46.6176 50.67 46.1225V25.8776C50.67 25.3825 50.285 24.9974 49.8082 24.9974H47.2592C46.8008 24.9974 46.3607 25.1808 46.0306 25.5108L36.3116 35.3582C36.1465 35.5233 35.8531 35.5233 35.6881 35.3582L25.969 25.5108C25.639 25.1808 25.1989 24.9974 24.7404 24.9974H22.1915C21.7147 24.9974 21.3296 25.3825 21.3296 25.8776V46.1225C21.3296 46.6176 21.7147 47.0027 22.1915 47.0027H25.8957C26.3725 47.0027 26.7576 46.6176 26.7576 46.1225V34.6247C26.7576 34.5147 26.8859 34.478 26.941 34.533L34.7712 42.4549C35.4497 43.1518 36.5499 43.1518 37.2284 42.4549L45.0587 34.533C45.1137 34.478 45.2421 34.5147 45.2421 34.6247V46.1225C45.2421 46.6176 45.6272 47.0027 46.1039 47.0027H49.8082Z" fill="#DD1405"/>
</svg>
