<svg width="22" height="22" viewBox="0 0 22 22" fill="none" xmlns="http://www.w3.org/2000/svg">
<path d="M14 0.25C14.4142 0.25 14.75 0.585786 14.75 1V2.5C14.75 2.91421 14.4142 3.25 14 3.25C13.5858 3.25 13.25 2.91421 13.25 2.5V1C13.25 0.585786 13.5858 0.25 14 0.25Z" fill="#303233"/>
<path d="M8.46967 2.46967C8.76256 2.17678 9.23744 2.17678 9.53033 2.46967L10.5303 3.46967C10.8232 3.76256 10.8232 4.23744 10.5303 4.53033C10.2374 4.82322 9.76256 4.82322 9.46967 4.53033L8.46967 3.53033C8.17678 3.23744 8.17678 2.76256 8.46967 2.46967Z" fill="#303233"/>
<path d="M19.5303 2.46967C19.8232 2.76256 19.8232 3.23744 19.5303 3.53033L18.5303 4.53033C18.2374 4.82322 17.7626 4.82322 17.4697 4.53033C17.1768 4.23744 17.1768 3.76256 17.4697 3.46967L18.4697 2.46967C18.7626 2.17678 19.2374 2.17678 19.5303 2.46967Z" fill="#303233"/>
<path d="M18.75 8C18.75 7.58579 19.0858 7.25 19.5 7.25H21C21.4142 7.25 21.75 7.58579 21.75 8C21.75 8.41421 21.4142 8.75 21 8.75H19.5C19.0858 8.75 18.75 8.41421 18.75 8Z" fill="#303233"/>
<path d="M17.4697 11.4697C17.7626 11.1768 18.2374 11.1768 18.5303 11.4697L19.5303 12.4697C19.8232 12.7626 19.8232 13.2374 19.5303 13.5303C19.2374 13.8232 18.7626 13.8232 18.4697 13.5303L17.4697 12.5303C17.1768 12.2374 17.1768 11.7626 17.4697 11.4697Z" fill="#303233"/>
<path fill-rule="evenodd" clip-rule="evenodd" d="M11.9591 6.24987C12.3105 6.13566 12.6892 6.13566 13.0406 6.24987C13.2865 6.32974 13.4795 6.46643 13.6425 6.60483C13.7937 6.73318 13.9609 6.90041 14.143 7.08248L14.9173 7.85684C15.0994 8.0389 15.2667 8.2061 15.395 8.35731C15.5334 8.52033 15.6701 8.71339 15.75 8.95922C15.8642 9.3107 15.8642 9.68931 15.75 10.0408C15.6701 10.2866 15.5334 10.4797 15.395 10.6427C15.2667 10.7939 15.0994 10.9611 14.9174 11.1431L5.64302 20.4175C5.46096 20.5996 5.29375 20.7668 5.14254 20.8952C4.97952 21.0336 4.78646 21.1703 4.54063 21.2501C4.18915 21.3643 3.81054 21.3643 3.45907 21.2501C3.21324 21.1703 3.02018 21.0336 2.85715 20.8952C2.70596 20.7668 2.53876 20.5996 2.35671 20.4175L1.58235 19.6432C1.40027 19.4611 1.23304 19.2939 1.10467 19.1427C0.966278 18.9797 0.829588 18.7866 0.749714 18.5408C0.635512 18.1893 0.635512 17.8107 0.749714 17.4592C0.829588 17.2134 0.966278 17.0203 1.10467 16.8573C1.23303 16.7061 1.40026 16.5389 1.58233 16.3569L10.8567 7.0825C11.0387 6.90042 11.2059 6.73319 11.3572 6.60483C11.5202 6.46643 11.7132 6.32974 11.9591 6.24987ZM12 11.9392L13.8381 10.101C14.0449 9.89428 14.1677 9.7707 14.2515 9.67193C14.3027 9.61166 14.3201 9.58223 14.3244 9.574C14.3394 9.5258 14.3394 9.47421 14.3244 9.42601C14.3201 9.41778 14.3027 9.38835 14.2515 9.32807C14.1677 9.22931 14.0449 9.10572 13.8381 8.89896L13.1009 8.1617C12.8941 7.95494 12.7705 7.83218 12.6718 7.74833C12.6115 7.69716 12.5821 7.67975 12.5738 7.67542C12.5256 7.66048 12.4741 7.66048 12.4259 7.67542C12.4176 7.67975 12.3882 7.69716 12.3279 7.74833C12.2292 7.83218 12.1056 7.95494 11.8988 8.1617L10.0606 9.99987L12 11.9392ZM8.99998 11.0605L10.9393 12.9999L4.60089 19.3383C4.39413 19.5451 4.27054 19.6678 4.17178 19.7517C4.1115 19.8028 4.08206 19.8203 4.07384 19.8246C4.02564 19.8395 3.97405 19.8395 3.92586 19.8246C3.91763 19.8203 3.8882 19.8028 3.82792 19.7517C3.72915 19.6678 3.60557 19.5451 3.39881 19.3383L2.66155 18.601C2.45479 18.3943 2.33203 18.2707 2.24818 18.1719C2.19701 18.1116 2.17959 18.0822 2.17526 18.074C2.16033 18.0258 2.16033 17.9742 2.17526 17.926C2.17959 17.9178 2.19701 17.8884 2.24818 17.8281C2.33203 17.7293 2.45479 17.6057 2.66155 17.399L8.99998 11.0605Z" fill="#303233"/>
</svg>
